<?xml version="1.0" encoding="utf-8"?>
<!-- Generator: Adobe Illustrator 26.2.1, SVG Export Plug-In . SVG Version: 6.00 Build 0)  -->
<svg version="1.1" id="Ebene_1" xmlns:sketch="http://www.bohemiancoding.com/sketch/ns"
	 xmlns="http://www.w3.org/2000/svg" xmlns:xlink="http://www.w3.org/1999/xlink" x="0px" y="0px" viewBox="0 0 60 60"
	 style="enable-background:new 0 0 60 60;" xml:space="preserve">
<style type="text/css">
	.st0{fill:none;stroke:#000000;stroke-width:4;stroke-miterlimit:10;}
	.st1{fill:none;stroke:#000000;stroke-width:4;stroke-linecap:round;stroke-miterlimit:10;}
	.st2{fill:none;stroke:#000000;stroke-width:4;stroke-linejoin:round;stroke-miterlimit:10;}
	.st3{stroke:#000000;stroke-linejoin:round;stroke-miterlimit:10;}
</style>
<path class="st0" d="M27.8,33.6"/>
<line class="st1" x1="13.3" y1="48.8" x2="30.1" y2="48.8"/>
<line class="st1" x1="13.3" y1="35.4" x2="18.6" y2="35.4"/>
<line class="st1" x1="13.3" y1="27.6" x2="17.6" y2="27.6"/>
<line class="st1" x1="13.3" y1="42.1" x2="23.1" y2="42.1"/>
<polyline class="st2" points="42.1,10.2 42.1,2.7 5.4,2.7 5.4,57.1 42.1,57.1 42.1,52.1 "/>
<polyline class="st3" points="40.6,9.8 40.6,14.5 43.6,9.8 "/>
<polyline class="st3" points="43.6,52.5 43.6,48.8 40.6,52.5 "/>
<line class="st1" x1="13.3" y1="20.4" x2="29.1" y2="20.4"/>
<line class="st1" x1="13.3" y1="13.2" x2="33.2" y2="13.2"/>
<path class="st1" d="M29.8,31c1.2,1,2.5,2.1,3.9,3.6c1.9,2.1,2.3,3.1,3.4,4.9c0.3,0.6,1.2,0.5,1.4-0.1c4.6-12.9,12.3-18.7,14.4-20.3
	c0.9-0.7,1.8-1.3,2.7-1.8"/>
</svg>
